<?xml version="1.0" encoding="iso-8859-1"?>
<!-- Uploaded to: SVG Repo, www.svgrepo.com, Generator: SVG Repo Mixer Tools -->
<svg height="800px" width="800px" version="1.1" id="Layer_1" xmlns="http://www.w3.org/2000/svg" xmlns:xlink="http://www.w3.org/1999/xlink" 
	 viewBox="0 0 511.999 511.999" xml:space="preserve">
<path style="fill:#CFF09E;" d="M186.152,88.196c-12.048-34.548-44.891-59.345-83.545-59.345c-48.866,0-88.479,39.613-88.479,88.479
	c0,36.156,21.698,67.225,52.771,80.952C86.748,145.095,131.057,103.832,186.152,88.196z"/>
<path style="fill:#507C5C;" d="M66.901,212.411c-1.947,0-3.891-0.403-5.709-1.205C24.019,194.785,0,157.937,0,117.33
	C0,60.752,46.029,14.722,102.607,14.722c43.596,0,82.532,27.657,96.885,68.82c1.281,3.675,0.99,7.714-0.804,11.169
	c-1.796,3.453-4.935,6.013-8.679,7.076c-50.438,14.315-91.513,52.235-109.872,101.435c-1.361,3.647-4.164,6.568-7.75,8.08
	C70.633,212.042,68.766,212.411,66.901,212.411z M102.607,42.98c-40.997,0-74.35,33.354-74.35,74.35
	c0,24.547,12.114,47.197,31.773,60.943c21.452-45.291,59.914-80.802,106.726-98.533C153.598,57.296,129.309,42.98,102.607,42.98z"/>
<path style="fill:#CFF09E;" d="M409.393,28.851c-38.655,0-71.499,24.797-83.545,59.344c55.095,15.638,99.404,56.901,119.253,110.087
	c31.075-13.728,52.771-44.797,52.771-80.952C497.871,68.464,458.258,28.851,409.393,28.851z"/>
<g>
	<path style="fill:#507C5C;" d="M445.099,212.411c-1.865,0-3.733-0.369-5.488-1.109c-3.586-1.512-6.389-4.435-7.75-8.08
		c-18.359-49.199-59.433-87.119-109.872-101.435c-3.743-1.062-6.884-3.623-8.679-7.076c-1.796-3.453-2.087-7.494-0.804-11.169
		c14.353-41.164,53.289-68.82,96.885-68.82c56.579,0,102.607,46.029,102.607,102.607c0,40.608-24.019,77.455-61.192,93.877
		C448.991,212.009,447.044,212.411,445.099,212.411z M345.242,79.74c46.811,17.729,85.274,53.241,106.726,98.533
		c19.659-13.746,31.773-36.397,31.773-60.943c0-40.996-33.352-74.35-74.35-74.35C382.689,42.98,358.402,57.296,345.242,79.74z"/>
	<path style="fill:#507C5C;" d="M246.03,299.763c-3.741,0-7.514-0.853-11.025-2.608l-56.423-28.211
		c-6.98-3.49-9.808-11.977-6.32-18.957c3.488-6.98,11.976-9.808,18.955-6.318l54.091,27.045l71.798-71.798
		c5.52-5.517,14.464-5.517,19.982,0c5.517,5.517,5.517,14.464,0,19.981l-73.642,73.642
		C258.712,297.275,252.416,299.763,246.03,299.763z"/>
	<path style="fill:#507C5C;" d="M255.999,500.485c-121.047,0-219.524-98.479-219.524-219.526S134.954,61.435,255.999,61.435
		c87.224,0,166.195,51.639,201.185,131.556c3.131,7.148-0.127,15.479-7.275,18.609c-7.151,3.125-15.479-0.127-18.609-7.276
		c-30.49-69.636-99.298-114.632-175.3-114.632c-105.466,0-191.267,85.803-191.267,191.268s85.803,191.268,191.267,191.268
		s191.267-85.803,191.267-191.268c0-7.803,6.327-14.129,14.129-14.129s14.129,6.325,14.129,14.129
		C475.524,402.006,377.046,500.485,255.999,500.485z"/>
	<path style="fill:#507C5C;" d="M358.882,363.389c-2.28,0-4.595-0.554-6.741-1.721l-128.056-69.673
		c-6.855-3.73-9.389-12.309-5.659-19.163c3.729-6.854,12.306-9.387,19.163-5.659l128.056,69.673
		c6.855,3.73,9.389,12.309,5.659,19.163C368.743,360.719,363.891,363.389,358.882,363.389z"/>
	<path style="fill:#507C5C;" d="M255.999,140.333c-7.802,0-14.129-6.325-14.129-14.129v-50.64c0-7.803,6.327-14.129,14.129-14.129
		c7.802,0,14.129,6.325,14.129,14.129v50.64C270.128,134.007,263.803,140.333,255.999,140.333z"/>
	<path style="fill:#507C5C;" d="M255.999,500.485c-7.802,0-14.129-6.325-14.129-14.129v-50.64c0-7.803,6.327-14.129,14.129-14.129
		c7.802,0,14.129,6.325,14.129,14.129v50.64C270.128,494.16,263.803,500.485,255.999,500.485z"/>
	<path style="fill:#507C5C;" d="M461.395,295.088h-50.64c-7.802,0-14.129-6.325-14.129-14.129s6.327-14.129,14.129-14.129h50.64
		c7.802,0,14.129,6.325,14.129,14.129S469.198,295.088,461.395,295.088z"/>
	<path style="fill:#507C5C;" d="M101.244,295.088h-50.64c-7.802,0-14.129-6.325-14.129-14.129s6.327-14.129,14.129-14.129h50.64
		c7.802,0,14.129,6.325,14.129,14.129S109.047,295.088,101.244,295.088z"/>
	<path style="fill:#507C5C;" d="M301.449,89.692c-7.802,0-14.129-6.325-14.129-14.129V46.365c0-3.635-2.959-6.594-6.594-6.594
		h-49.454c-3.635,0-6.594,2.957-6.594,6.594v29.199c0,7.803-6.327,14.129-14.129,14.129c-7.802,0-14.129-6.325-14.129-14.129V46.365
		c0-19.217,15.633-34.851,34.851-34.851h49.454c19.218,0,34.851,15.633,34.851,34.851v29.199
		C315.578,83.367,309.252,89.692,301.449,89.692z"/>
</g>
</svg>